<svg xmlns="http://www.w3.org/2000/svg" viewBox="0 0 30 30" width="26" height="26"><path fill="#f78f8f" d="M14.707 18.615L18.615 14.707 27.793 23.885 23.885 23.885 23.885 27.793z"/><path fill="#c74343" d="M18.615,15.414l7.97,7.97h-2.201h-1v1v2.201l-7.97-7.97L18.615,15.414 M18.615,14L14,18.615 L24.385,29v-4.615H29L18.615,14L18.615,14z"/><path fill="#f78f8f" d="M6.115 23.885L2.207 23.885 11.385 14.707 15.293 18.615 6.115 27.793z"/><path fill="#c74343" d="M11.385,15.414l3.201,3.201l-7.97,7.97v-2.201v-1h-1H3.414L11.385,15.414 M11.385,14L1,24.385 h4.615V29L16,18.615L11.385,14L11.385,14z"/><path fill="#ffeea3" d="M15,22.5C9.21,22.5,4.5,17.79,4.5,12S9.21,1.5,15,1.5S25.5,6.21,25.5,12S20.79,22.5,15,22.5z"/><path fill="#ba9b48" d="M15,2c5.514,0,10,4.486,10,10s-4.486,10-10,10S5,17.514,5,12S9.486,2,15,2 M15,1 C8.925,1,4,5.925,4,12s4.925,11,11,11s11-4.925,11-11S21.075,1,15,1L15,1z"/><path fill="#f5ce85" d="M15 4A8 8 0 1 0 15 20A8 8 0 1 0 15 4Z"/><path fill="#967a44" d="M16,8v8h-1.383V9.838c-0.25,0.179-0.778,0.385-1.795,0.642V9.3c1.382-0.443,2.367-1.137,2.594-1.3H16	z"/></svg>
